<svg width="50" height="30" viewBox="0 0 50 30" fill="none" xmlns="http://www.w3.org/2000/svg">
    <!-- B Shape: Blocky with top-left cut -->
    <path fill-rule="evenodd" clip-rule="evenodd" d="M5 0L0 5V30H18C23 30 25 27 25 23C25 20 23 18 20 17C23 16 25 13 25 9C25 4 22 0 17 0H5ZM8 22V26H16C17.5 26 18 25.5 18 24C18 22.5 17.5 22 16 22H8ZM8 8V14H16C17.5 14 18 13.5 18 12C18 10.5 17.5 10 16 10H8Z" fill="white"/>
    
    <!-- V Shape: Thick, next to B (adjusted spacing) -->
    <path d="M26 0H33L38 18L43 0H50L41 30H35L26 0Z" fill="white"/>
</svg>
